# Blender 4.3.2
# www.blender.org
mtllib @Tag.Ground.5.mtl
o GroundBase45Left.001
v -80.070000 1.000002 -23.844387
v -80.187660 1.000002 23.984581
v -12.121459 1.000000 -31.006208
v 8.811177 1.000000 12.189000
v -68.769333 1.000002 23.858297
v -57.351009 1.000002 24.097589
v -45.932682 1.000002 24.178053
v -32.799549 1.000004 23.700871
v -18.165167 1.000000 21.614479
v -4.157866 1.000000 17.695028
v -20.163261 1.000000 -27.557911
v -28.151796 1.000000 -25.335154
v -36.111519 1.000002 -24.184738
v -45.815022 1.000002 -23.815424
v -57.233349 1.000002 -23.839453
v -68.651672 1.000002 -24.006430
v -12.121459 1.000000 -31.006208
v 8.811177 1.000000 12.189000
v 43.473618 1.000000 -76.203751
v 77.414742 0.999999 -42.262623
v 20.802563 1.000004 5.653763
v 31.856794 1.000001 -1.631429
v 42.064453 1.000001 -9.462454
v 51.641918 1.000003 -17.643450
v 60.701881 1.000000 -26.089453
v 69.200882 0.999999 -34.316250
v 35.259758 1.000000 -68.257378
v 27.331038 1.000000 -60.591446
v 19.676891 0.999999 -53.451790
v 11.882138 0.999999 -46.785740
v 3.966303 1.000001 -40.697025
v -4.056436 1.000000 -35.407543
vn -0.0000 1.0000 -0.0000
vt 1.000000 0.857143
vt 0.000000 1.000000
vt 1.000000 1.000000
vt 1.000000 0.000000
vt 0.000000 0.142857
vt 1.000000 0.142857
vt 1.000000 0.285714
vt 0.000000 0.428571
vt 1.000000 0.428571
vt 0.000000 0.571429
vt 1.000000 0.571429
vt 1.000000 0.714286
vt 0.000000 0.714286
vt 0.000000 0.000000
vt 0.000000 0.857143
vt 0.000000 0.285714
s 0
usemtl WoodenFloor
f 5/1/1 1/2/1 2/3/1
f 4/4/1 11/5/1 10/6/1
f 11/5/1 9/7/1 10/6/1
f 9/7/1 13/8/1 8/9/1
f 8/9/1 14/10/1 7/11/1
f 14/10/1 6/12/1 7/11/1
f 15/13/1 5/1/1 6/12/1
f 21/1/1 17/2/1 18/3/1
f 19/14/1 26/6/1 20/4/1
f 27/5/1 25/7/1 26/6/1
f 25/7/1 29/8/1 24/9/1
f 24/9/1 30/10/1 23/11/1
f 23/11/1 31/13/1 22/12/1
f 22/12/1 32/15/1 21/1/1
f 5/1/1 16/15/1 1/2/1
f 4/4/1 3/14/1 11/5/1
f 11/5/1 12/16/1 9/7/1
f 9/7/1 12/16/1 13/8/1
f 8/9/1 13/8/1 14/10/1
f 14/10/1 15/13/1 6/12/1
f 15/13/1 16/15/1 5/1/1
f 21/1/1 32/15/1 17/2/1
f 19/14/1 27/5/1 26/6/1
f 27/5/1 28/16/1 25/7/1
f 25/7/1 28/16/1 29/8/1
f 24/9/1 29/8/1 30/10/1
f 23/11/1 30/10/1 31/13/1
f 22/12/1 31/13/1 32/15/1
