# Blender 4.3.2
# www.blender.org
mtllib @Tag.Booster.mtl
o BoosterCube.001
v -4.640366 -4.184254 3.798017
v -4.640366 4.184237 3.798017
v -4.640366 -4.184254 -3.798017
v -4.640366 4.184255 -3.798017
v 4.640366 -4.184254 3.798017
v 4.640365 4.184255 3.798017
v 4.640366 -4.184254 -3.798017
v 4.640365 4.184273 -3.798017
vn -1.0000 -0.0000 -0.0000
vn -0.0000 -0.0000 -1.0000
vn 1.0000 -0.0000 -0.0000
vn -0.0000 -0.0000 1.0000
vn -0.0000 -1.0000 -0.0000
vn -0.0000 1.0000 -0.0000
vt 0.000000 1.003906
vt 0.996094 0.000000
vt 0.003906 0.003906
vt 1.000000 0.003906
vt 0.000000 1.000000
vt -0.000000 -0.000000
vt 0.000000 0.996094
vt 0.996094 1.000000
vt 1.000000 1.000000
vt 0.003906 1.000000
vt 0.996094 0.003906
vt -0.003906 0.000000
vt 1.000000 1.003906
vt -0.003906 0.003906
vt 0.996094 0.996094
s 0
usemtl Material
f 2/1/1 3/2/1 1/3/1
f 4/4/2 7/5/2 3/6/2
f 7/2/3 6/7/3 5/8/3
f 5/6/4 2/9/4 1/10/4
f 7/2/5 1/7/5 3/6/5
f 4/11/6 6/5/6 8/12/6
f 2/1/1 4/13/1 3/2/1
f 4/4/2 8/9/2 7/5/2
f 7/2/3 8/14/3 6/7/3
f 5/6/4 6/2/4 2/9/4
f 7/2/5 5/15/5 1/7/5
f 4/11/6 2/8/6 6/5/6
