# Blender 4.3.2
# www.blender.org
mtllib @Tag.Booster.mtl
o BoosterCube
v 2.520161 2.520161 -2.520161
v 2.520161 -2.520161 -2.520161
v 2.520161 2.520161 2.520161
v 2.520161 -2.520161 2.520161
v -2.520161 2.520161 -2.520161
v -2.520161 -2.520161 -2.520161
v -2.520161 2.520161 2.520161
v -2.520161 -2.520161 2.520161
vn -0.0000 -1.0000 -0.0000
vn -0.0000 -0.0000 -1.0000
vn -1.0000 -0.0000 -0.0000
vn -0.0000 -0.0000 1.0000
vn -0.0000 1.0000 -0.0000
vn 1.0000 -0.0000 -0.0000
vt 0.999429 -0.000000
vt 0.000000 1.000000
vt -0.000000 0.000000
vt 0.999429 1.000000
vt 0.999429 0.000000
vt 0.999429 1.000000
vt 0.000000 0.000000
s 0
usemtl LuckyCube
f 2/1/1 8/2/1 6/3/1
f 5/4/2 2/3/2 6/1/2
f 7/4/3 6/3/3 8/1/3
f 3/4/4 8/3/4 4/1/4
f 5/2/5 3/5/5 1/6/5
f 1/4/6 4/3/6 2/1/6
f 2/1/1 4/4/1 8/2/1
f 5/4/2 1/2/2 2/3/2
f 7/4/3 5/2/3 6/3/3
f 3/4/4 7/2/4 8/3/4
f 5/2/5 7/7/5 3/5/5
f 1/4/6 3/2/6 4/3/6
